<svg width="32" height="32" viewBox="0 0 32 32" fill="none" xmlns="http://www.w3.org/2000/svg">
  <defs>
    <linearGradient id="gradient" x1="0%" y1="0%" x2="100%" y2="100%">
      <stop offset="0%" style="stop-color:#9333EA;stop-opacity:1" />
      <stop offset="100%" style="stop-color:#EC4899;stop-opacity:1" />
    </linearGradient>
  </defs>
  <!-- 배경 -->
  <rect width="32" height="32" rx="8" fill="url(#gradient)"/>
  <!-- 하트 아이콘 (상단) -->
  <path d="M16 9C14.5 9 13 9.7 12 11C11 12.3 10.5 14 10.5 15.5C10.5 17 11 18.7 12 20C13 21.3 14.5 22 16 22C17.5 22 19 21.3 20 20C21 18.7 21.5 17 21.5 15.5C21.5 14 21 12.3 20 11C19 9.7 17.5 9 16 9Z" fill="white" opacity="0.95"/>
  <!-- 편지 아이콘 (하단) -->
  <path d="M9.5 20L16 24.5L22.5 20" stroke="white" stroke-width="2" stroke-linecap="round" stroke-linejoin="round" fill="none" opacity="0.9"/>
  <path d="M9.5 20L9.5 23.5L22.5 23.5L22.5 20" stroke="white" stroke-width="1.8" stroke-linecap="round" stroke-linejoin="round" fill="none" opacity="0.7"/>
</svg>
